{"title":"Deadfall (Portable).m4v","uid":8292137,"size":1125382629,"categoryP":"video","categoryS":"handheld","magnet":"?xt=urn:btih:10069c4be43c4b9ed7fe2ab5faae265c701d1aed&amp;dn=Deadfall+%28Portable%29.m4v&amp;tr=udp%3A%2F%2Ftracker.openbittorrent.com%3A80&amp;tr=udp%3A%2F%2Fopen.demonii.com%3A1337&amp;tr=udp%3A%2F%2Ftracker.coppersurfer.tk%3A6969&amp;tr=udp%3A%2F%2Fexodus.desync.com%3A6969","seeders":0,"leechers":0,"uploader":"arctictpb","files":1,"time":1364069545,"description":"General\nComplete name                            : Deadfall (Portable).m4v\nFormat                                   : MPEG-4\nFormat profile                           : Base Media / Version 2\nCodec ID                                 : mp42\nFile size                                : 1.05 GiB\nDuration                                 : 1h 34mn\nOverall bit rate mode                    : Variable\nOverall bit rate                         : 1 586 Kbps\nMovie name                               : Deadfall\nPerformer                                : Eric Bana, Olivia Wilde, Charlie Hunnam, Sissy Spacek, Kris Kristofferson, Kate Mara, Treat Williams, Alain Goulem, Allison Graham, Jason Cavalier, Patrick Kerton\nGenre                                    : Crime, Drama, Thriller\nRecorded date                            : 2012-12-07\nEncoded date                             : UTC 2013-02-16 03:46:02\nTagged date                              : UTC 2013-02-17 21:40:08\nWriting application                      : HandBrake 5251svn 2013021301\nCover                                    : Yes\ndesc                                     : Siblings Addison and Liza are on the run with the stolen loot from a casino job gone horribly wrong. Meanwhile, troubled ex-boxer Jay heads for Thanksgiving dinner with his parents, June and retired sheriff Chet. What will happen when their worlds collide in a twist of fate?\n\nVideo\nID                                       : 1\nFormat                                   : AVC\nFormat/Info                              : Advanced Video Codec\nFormat profile                           : &lt;a class=&quot;__cf_email__&quot; href=&quot;/cdn-cgi/l/email-protection&quot; data-cfemail=&quot;1b53727c735b5728352a&quot;&gt;[email&amp;#160;protected]&lt;/a&gt;&lt;script cf-hash='f9e31' type=&quot;text/javascript&quot;&gt;\n/* &lt;![CDATA[ */!function(){try{var t=&quot;currentScript&quot;in document?document.currentScript:function(){for(var t=document.getElementsByTagName(&quot;script&quot;),e=t.length;e--;)if(t[e].getAttribute(&quot;cf-hash&quot;))return t[e]}();if(t&amp;&amp;t.previousSibling){var e,r,n,i,c=t.previousSibling,a=c.getAttribute(&quot;data-cfemail&quot;);if(a){for(e=&quot;&quot;,r=parseInt(a.substr(0,2),16),n=2;a.length-n;n+=2)i=parseInt(a.substr(n,2),16)^r,e+=String.fromCharCode(i);e=document.createTextNode(e),c.parentNode.replaceChild(e,c)}}}catch(u){}}();/* ]]&gt; */&lt;/script&gt;\nFormat settings, CABAC                   : Yes\nFormat settings, ReFrames                : 4 frames\nCodec ID                                 : avc1\nCodec ID/Info                            : Advanced Video Coding\nDuration                                 : 1h 34mn\nBit rate mode                            : Variable\nBit rate                                 : 1 412 Kbps\nWidth                                    : 960 pixels\nHeight                                   : 408 pixels\nDisplay aspect ratio                     : 2.35:1\nFrame rate mode                          : Variable\nFrame rate                               : 23.976 fps\nMinimum frame rate                       : 13.320 fps\nMaximum frame rate                       : 23.981 fps\nColor space                              : YUV\nChroma subsampling                       : 4:2:0\nBit depth                                : 8 bits\nScan type                                : Progressive\nBits/(Pixel*Frame)                       : 0.150\nStream size                              : 956 MiB (89%)\nWriting library                          : x264 core 129\nEncoding settings                        : cabac=1 / ref=4 / deblock=1:0:0 / analyse=0x3:0x133 / me=umh / subme=10 / psy=1 / psy_rd=1.00:0.15 / mixed_ref=1 / me_range=32 / chroma_me=1 / trellis=2 / 8x8dct=1 / cqm=0 / deadzone=21,11 / fast_pskip=1 / chroma_qp_offset=-3 / threads=12 / lookahead_threads=2 / sliced_threads=0 / nr=0 / decimate=1 / interlaced=0 / bluray_compat=0 / constrained_intra=0 / bframes=4 / b_pyramid=2 / b_adapt=2 / b_bias=0 / direct=3 / weightb=1 / open_gop=0 / weightp=2 / keyint=300 / keyint_min=30 / scenecut=40 / intra_refresh=0 / rc_lookahead=60 / rc=crf / mbtree=1 / crf=19.0 / qcomp=0.60 / qpmin=4 / qpmax=69 / qpstep=4 / vbv_maxrate=17500 / vbv_bufsize=17500 / crf_max=0.0 / nal_hrd=none / ip_ratio=1.40 / aq=1:1.00\nLanguage                                 : English\nEncoded date                             : UTC 2013-02-16 03:46:02\nTagged date                              : UTC 2013-02-16 05:00:45\nColor primaries                          : BT.709\nTransfer characteristics                 : BT.709\nMatrix coefficients                      : BT.709\n\nAudio\nID                                       : 2\nFormat                                   : AAC\nFormat/Info                              : Advanced Audio Codec\nFormat profile                           : LC\nCodec ID                                 : 40\nDuration                                 : 1h 34mn\nBit rate mode                            : Variable\nBit rate                                 : 164 Kbps\nMaximum bit rate                         : 262 Kbps\nChannel(s)                               : 2 channels\nChannel positions                        : Front: L R\nSampling rate                            : 48.0 KHz\nCompression mode                         : Lossy\nDelay relative to video                  : 83ms\nStream size                              : 111 MiB (10%)\nLanguage                                 : English\nEncoded date                             : UTC 2013-02-16 03:46:02\nTagged date                              : UTC 2013-02-16 05:00:45","torrent":{"xt":"urn:btih:10069c4be43c4b9ed7fe2ab5faae265c701d1aed","amp;dn":"Deadfall+%28Portable%29.m4v","amp;tr":["udp%3A%2F%2Ftracker.openbittorrent.com%3A80","udp%3A%2F%2Fopen.demonii.com%3A1337","udp%3A%2F%2Ftracker.coppersurfer.tk%3A6969","udp%3A%2F%2Fexodus.desync.com%3A6969"],"infoHash":"10069c4be43c4b9ed7fe2ab5faae265c701d1aed","infoHashBuffer":{"type":"Buffer","data":[16,6,156,75,228,60,75,158,215,254,42,181,250,174,38,92,112,29,26,237]},"announce":[],"urlList":[]}}